<?xml version="1.0" encoding="UTF-8" standalone="no"?>
<!-- Created with Inkscape (http://www.inkscape.org/) -->

<svg
   xmlns:dc="http://purl.org/dc/elements/1.1/"
   xmlns:cc="http://creativecommons.org/ns#"
   xmlns:rdf="http://www.w3.org/1999/02/22-rdf-syntax-ns#"
   xmlns:svg="http://www.w3.org/2000/svg"
   xmlns="http://www.w3.org/2000/svg"
   xmlns:sodipodi="http://sodipodi.sourceforge.net/DTD/sodipodi-0.dtd"
   xmlns:inkscape="http://www.inkscape.org/namespaces/inkscape"
   width="80mm"
   height="60mm"
   viewBox="0 0 80 60"
   version="1.1"
   id="svg8"
   inkscape:version="0.92.5 (2060ec1f9f, 2020-04-08)"
   sodipodi:docname="logger.svg">
  <defs
     id="defs2" />
  <sodipodi:namedview
     id="base"
     pagecolor="#ffffff"
     bordercolor="#666666"
     borderopacity="1.0"
     inkscape:pageopacity="0.0"
     inkscape:pageshadow="2"
     inkscape:zoom="3.959798"
     inkscape:cx="175.80138"
     inkscape:cy="120.049"
     inkscape:document-units="mm"
     inkscape:current-layer="layer1"
     showgrid="false"
     inkscape:window-width="1920"
     inkscape:window-height="1016"
     inkscape:window-x="0"
     inkscape:window-y="27"
     inkscape:window-maximized="1" />
  <metadata
     id="metadata5">
    <rdf:RDF>
      <cc:Work
         rdf:about="">
        <dc:format>image/svg+xml</dc:format>
        <dc:type
           rdf:resource="http://purl.org/dc/dcmitype/StillImage" />
        <dc:title></dc:title>
      </cc:Work>
    </rdf:RDF>
  </metadata>
  <g
     inkscape:label="Layer 1"
     inkscape:groupmode="layer"
     id="layer1"
     transform="translate(0,-237)">
    <path
       style="fill:#b3b3b3;fill-opacity:1;stroke:none;stroke-width:9.98929119;stroke-linecap:round;stroke-linejoin:round;stroke-miterlimit:4;stroke-dasharray:none;stroke-opacity:1"
       d="M 183.45508 40.904297 A 60.861691 14.647212 0 0 0 122.73438 55.574219 A 60.861691 14.647212 0 0 0 122.80664 56.056641 L 122.73438 56.056641 L 122.73438 85.285156 L 122.74805 85.285156 A 60.861691 14.647212 0 0 0 122.73438 85.353516 A 60.861691 14.647212 0 0 0 183.64258 99.976562 A 60.861691 14.647212 0 0 0 244.45703 85.330078 L 244.45703 85.285156 L 244.45703 56.056641 L 244.35156 56.056641 A 60.861691 14.647212 0 0 0 244.45703 55.550781 L 244.45703 55.505859 A 60.861691 14.647212 0 0 0 183.45508 40.904297 z "
       transform="matrix(0.26458333,0,0,0.26458333,0,237)"
       id="path815" />
    <path
       style="fill:#b3b3b3;fill-opacity:1;stroke:none;stroke-width:2.64299989;stroke-linecap:round;stroke-linejoin:round;stroke-miterlimit:4;stroke-dasharray:none;stroke-opacity:1"
       id="path815-7"
       sodipodi:type="arc"
       sodipodi:cx="48.640697"
       sodipodi:cy="263.84222"
       sodipodi:rx="16.102989"
       sodipodi:ry="3.8754082"
       sodipodi:start="0"
       sodipodi:end="6.2800961"
       sodipodi:open="true"
       d="m 64.743687,263.84222 a 16.102989,3.8754082 0 0 1 -16.090553,3.87541 16.102989,3.8754082 0 0 1 -16.115407,-3.86942 16.102989,3.8754082 0 0 1 16.065661,-3.88138 16.102989,3.8754082 0 0 1 16.140222,3.86342" />
    <path
       style="fill:#b3b3b3;fill-opacity:1;stroke:none;stroke-width:2.64299989;stroke-linecap:round;stroke-linejoin:round;stroke-miterlimit:4;stroke-dasharray:none;stroke-opacity:1"
       id="path815-3-5"
       sodipodi:type="arc"
       sodipodi:cx="48.640697"
       sodipodi:cy="271.72134"
       sodipodi:rx="16.102989"
       sodipodi:ry="3.8754082"
       sodipodi:start="0"
       sodipodi:end="6.2800961"
       sodipodi:open="true"
       d="m 64.743687,271.72134 a 16.102989,3.8754082 0 0 1 -16.090553,3.87541 16.102989,3.8754082 0 0 1 -16.115407,-3.86942 16.102989,3.8754082 0 0 1 16.065661,-3.88138 16.102989,3.8754082 0 0 1 16.140222,3.86342" />
    <path
       style="fill:#b3b3b3;fill-opacity:1;stroke:none;stroke-width:2.64299989;stroke-linecap:round;stroke-linejoin:round;stroke-miterlimit:4;stroke-dasharray:none;stroke-opacity:1"
       id="path815-35"
       sodipodi:type="arc"
       sodipodi:cx="48.640697"
       sodipodi:cy="276.01324"
       sodipodi:rx="16.102989"
       sodipodi:ry="3.8754082"
       sodipodi:start="0"
       sodipodi:end="6.2800961"
       sodipodi:open="true"
       d="m 64.743687,276.01324 a 16.102989,3.8754082 0 0 1 -16.090553,3.87541 16.102989,3.8754082 0 0 1 -16.115407,-3.86942 16.102989,3.8754082 0 0 1 16.065661,-3.88138 16.102989,3.8754082 0 0 1 16.140222,3.86342" />
    <path
       style="fill:#b3b3b3;fill-opacity:1;stroke:none;stroke-width:2.64299989;stroke-linecap:round;stroke-linejoin:round;stroke-miterlimit:4;stroke-dasharray:none;stroke-opacity:1"
       id="path815-3-6"
       sodipodi:type="arc"
       sodipodi:cx="48.640697"
       sodipodi:cy="283.89236"
       sodipodi:rx="16.102989"
       sodipodi:ry="3.8754082"
       sodipodi:start="0"
       sodipodi:end="6.2800961"
       sodipodi:open="true"
       d="m 64.743687,283.89236 a 16.102989,3.8754082 0 0 1 -16.090553,3.87541 16.102989,3.8754082 0 0 1 -16.115407,-3.86942 16.102989,3.8754082 0 0 1 16.065661,-3.88138 16.102989,3.8754082 0 0 1 16.140222,3.86342" />
  </g>
</svg>
