<?xml version="1.0" encoding="UTF-8" standalone="no"?>
<!-- Created with Inkscape (http://www.inkscape.org/) -->

<svg
   xmlns:dc="http://purl.org/dc/elements/1.1/"
   xmlns:cc="http://creativecommons.org/ns#"
   xmlns:rdf="http://www.w3.org/1999/02/22-rdf-syntax-ns#"
   xmlns:svg="http://www.w3.org/2000/svg"
   xmlns="http://www.w3.org/2000/svg"
   xmlns:sodipodi="http://sodipodi.sourceforge.net/DTD/sodipodi-0.dtd"
   xmlns:inkscape="http://www.inkscape.org/namespaces/inkscape"
   width="20mm"
   height="20mm"
   viewBox="0 0 20 20"
   version="1.1"
   id="svg8"
   inkscape:version="0.92.5 (2060ec1f9f, 2020-04-08)"
   sodipodi:docname="logo_baked.svg">
  <defs
     id="defs2" />
  <sodipodi:namedview
     id="base"
     pagecolor="#ffffff"
     bordercolor="#666666"
     borderopacity="1.0"
     inkscape:pageopacity="0.0"
     inkscape:pageshadow="2"
     inkscape:zoom="3.8914443"
     inkscape:cx="55.783455"
     inkscape:cy="39.300594"
     inkscape:document-units="mm"
     inkscape:current-layer="layer1"
     showgrid="false"
     inkscape:snap-grids="true"
     showguides="true"
     inkscape:snap-page="true"
     inkscape:window-width="1920"
     inkscape:window-height="1016"
     inkscape:window-x="0"
     inkscape:window-y="27"
     inkscape:window-maximized="1"
     inkscape:guide-bbox="true">
    <inkscape:grid
       type="xygrid"
       id="grid815" />
  </sodipodi:namedview>
  <metadata
     id="metadata5">
    <rdf:RDF>
      <cc:Work
         rdf:about="">
        <dc:format>image/svg+xml</dc:format>
        <dc:type
           rdf:resource="http://purl.org/dc/dcmitype/StillImage" />
        <dc:title></dc:title>
      </cc:Work>
    </rdf:RDF>
  </metadata>
  <g
     inkscape:label="Layer 1"
     inkscape:groupmode="layer"
     id="layer1"
     transform="translate(0,-277)">
    <path
       style="fill:#000000;fill-opacity:1;stroke:none;stroke-width:1.00157475;stroke-linecap:round;stroke-miterlimit:4;stroke-dasharray:none"
       d="M 37.707031 0 A 37.795276 37.795276 0 0 0 0 37.853516 A 37.795276 37.795276 0 0 0 37.824219 75.589844 A 37.795276 37.795276 0 0 0 75.589844 37.794922 L 75.589844 37.677734 A 37.795276 37.795276 0 0 0 37.707031 0 z M 44.289062 12.919922 C 49.44225 13.314389 63.836473 26.056858 60.462891 28.5625 C 56.807171 31.277671 53.229532 34.425978 49.878906 37.71875 C 51.960973 39.456452 54.92371 41.132255 58.728516 42.318359 C 53.61421 41.996722 51.951172 42.636719 51.951172 42.636719 L 52.353516 45.585938 C 51.154137 42.938225 49.906627 41.114787 47.917969 39.683594 C 39.847514 47.978714 33.430641 56.856609 31.244141 62.064453 C 29.7873 65.5344 11.041066 49.806557 15.039062 46.699219 C 28.006153 36.620806 35.160574 26.328983 42.748047 13.533203 C 42.968127 13.162052 43.336694 12.967325 43.820312 12.921875 C 43.966406 12.908145 44.122831 12.907197 44.289062 12.919922 z "
       id="path4524"
       transform="matrix(0.26458333,0,0,0.26458333,0,277)" />
  </g>
</svg>
