<?xml version="1.0" encoding="UTF-8" standalone="no"?>
<!-- Created with Inkscape (http://www.inkscape.org/) -->

<svg
   xmlns:dc="http://purl.org/dc/elements/1.1/"
   xmlns:cc="http://creativecommons.org/ns#"
   xmlns:rdf="http://www.w3.org/1999/02/22-rdf-syntax-ns#"
   xmlns:svg="http://www.w3.org/2000/svg"
   xmlns="http://www.w3.org/2000/svg"
   xmlns:sodipodi="http://sodipodi.sourceforge.net/DTD/sodipodi-0.dtd"
   xmlns:inkscape="http://www.inkscape.org/namespaces/inkscape"
   width="20mm"
   height="20mm"
   viewBox="0 0 20 20"
   version="1.1"
   id="svg8"
   inkscape:version="0.92.5 (2060ec1f9f, 2020-04-08)"
   sodipodi:docname="logo.svg">
  <defs
     id="defs2" />
  <sodipodi:namedview
     id="base"
     pagecolor="#ffffff"
     bordercolor="#666666"
     borderopacity="1.0"
     inkscape:pageopacity="0.0"
     inkscape:pageshadow="2"
     inkscape:zoom="3.8914443"
     inkscape:cx="55.783455"
     inkscape:cy="39.300594"
     inkscape:document-units="mm"
     inkscape:current-layer="layer1"
     showgrid="false"
     inkscape:snap-grids="true"
     showguides="true"
     inkscape:snap-page="true"
     inkscape:window-width="1920"
     inkscape:window-height="1016"
     inkscape:window-x="0"
     inkscape:window-y="27"
     inkscape:window-maximized="1"
     inkscape:guide-bbox="true">
    <inkscape:grid
       type="xygrid"
       id="grid815" />
  </sodipodi:namedview>
  <metadata
     id="metadata5">
    <rdf:RDF>
      <cc:Work
         rdf:about="">
        <dc:format>image/svg+xml</dc:format>
        <dc:type
           rdf:resource="http://purl.org/dc/dcmitype/StillImage" />
        <dc:title></dc:title>
      </cc:Work>
    </rdf:RDF>
  </metadata>
  <g
     inkscape:label="Layer 1"
     inkscape:groupmode="layer"
     id="layer1"
     transform="translate(0,-277)">
    <path
       style="fill:#000000;fill-opacity:1;stroke:none;stroke-width:0.26499999;stroke-linecap:round;stroke-miterlimit:4;stroke-dasharray:none"
       id="path4524"
       sodipodi:type="arc"
       sodipodi:cx="10"
       sodipodi:cy="287"
       sodipodi:rx="10"
       sodipodi:ry="10"
       sodipodi:start="0"
       sodipodi:end="6.2800961"
       sodipodi:open="true"
       d="M 20,287 A 10,10 0 0 1 10.007723,297 10,10 0 0 1 1.1928999e-5,287.01545 10,10 0 0 1 9.976831,277.00003 a 10,10 0 0 1 10.023121,9.96908" />
    <path
       style="fill:#ffffff;stroke:none;stroke-width:0.24451298px;stroke-linecap:butt;stroke-linejoin:miter;stroke-opacity:1"
       d="m 11.310288,280.5808 c -2.0075189,3.38555 -3.9000705,6.10834 -7.3309465,8.77492 -1.0578034,0.82215 3.9020374,4.98343 4.2874932,4.06534 0.8576014,-2.04265 4.1709083,-6.21976 7.7308163,-8.86377 1.016703,-0.75513 -4.066249,-5.02396 -4.687363,-3.97649 z"
       id="path4547"
       inkscape:connector-curvature="0"
       sodipodi:nodetypes="sssss" />
    <path
       style="fill:#ffffff;stroke:none;stroke-width:0.37234196px;stroke-linecap:butt;stroke-linejoin:miter;stroke-opacity:1"
       d="m 12.697025,286.48789 c 0.51773,0.62001 1.476701,1.28333 2.841627,1.70883 -1.35316,-0.0851 -1.79348,0.0844 -1.79348,0.0844 l 0.106882,0.78009 c -0.415185,-0.91655 -0.850076,-1.46047 -1.720803,-1.88596 z"
       id="path4555"
       inkscape:connector-curvature="0"
       sodipodi:nodetypes="cccccc" />
  </g>
</svg>
